# xmcd
#
# Track frame offsets:
#	150
#	10336
#	25708
#	47073
#	75923
#	94278
#	112298
#	131775
#	149065
#
# Disc length: 2792 seconds
#
# Revision: 0
# Processed by: cddbd v1.5.1PL2 Copyright (c) Steve Scherf et al.
# Submitted via: EasyCDDAExtractor 8.0.2.1
#
DISCID=7a0ae609
DTITLE=Dio - National Forest Brussels 19-10-84 Disc 1
DYEAR=1984
DGENRE=Hard Rock
TTITLE0=Intro
TTITLE1=Stand Up And Shout
TTITLE2=One Night In The City
TTITLE3=Don't Talk To Strangers
TTITLE4=Mystery
TTITLE5=Egypt (The Chains Are On)
TTITLE6=Holy Diver
TTITLE7=Drum Solo
TTITLE8=Heaven and Hell
EXTD=
EXTT0=
EXTT1=
EXTT2=
EXTT3=
EXTT4=
EXTT5=
EXTT6=
EXTT7=
EXTT8=
PLAYORDER=
